<svg width="461" height="519" viewBox="0 0 461 519" fill="none" xmlns="http://www.w3.org/2000/svg">
<path d="M245.219 267.98L421.249 259.31C421.659 259.29 421.659 258.68 421.249 258.66L245.219 250.02L236.599 44.1904C236.579 43.7504 235.919 43.7504 235.899 44.1904L227.259 250.02L38.6094 258.59C38.1094 258.61 38.1094 259.35 38.6094 259.37L227.259 267.97L235.979 475.66C235.989 476 236.499 476 236.519 475.66L245.209 267.97" fill="white"/>
<path d="M280.479 302.24V472.29H280.489H412.639V448.78H305.049V396.69H399.839V373.18H305.049V325.75H412.639V302.24H280.489H280.479Z" fill="white"/>
<path d="M403.369 192.491H358.859V69.9407H403.369V46.4307H289.779V69.9407H334.289V192.491H289.779V216.001H403.369V192.491Z" fill="white"/>
<path d="M73.4196 85.2107L162.79 216.001H191.92V46.4307H167.35V176.501L78.5396 46.4307H48.8496V216.001H73.4196V85.2107Z" fill="white"/>
<path d="M123.83 319.771C123.83 319.771 136.87 319.511 148.71 324.741C162.96 331.041 172.51 342.611 176.95 359.511H202.76C195.92 324.441 175.01 308.751 158.66 301.561C141.22 293.891 123.99 294.531 123.88 294.531C95.8896 294.531 74.5497 303.931 60.3997 322.461C48.3197 338.281 41.9296 360.541 41.8896 386.821C41.9296 413.111 48.3197 435.361 60.3997 451.181C74.5497 469.711 95.8896 479.101 123.88 479.111C123.98 479.111 141.21 479.751 158.66 472.081C175.01 464.891 195.92 449.201 202.76 414.131H176.95C172.51 431.031 162.96 442.611 148.71 448.901C136.88 454.131 123.83 453.871 123.83 453.871C94.1397 453.871 83.7796 440.301 80.3696 435.841C71.6796 424.461 67.0697 407.511 67.0397 386.821C67.0697 366.131 71.6796 349.181 80.3696 337.801C83.7796 333.341 94.1397 319.771 123.83 319.771Z" fill="white"/>
</svg>
