<svg width="84" height="96" viewBox="0 0 84 96" fill="none" xmlns="http://www.w3.org/2000/svg">
<path d="M44.6434 49.6006L76.795 47.993C76.8699 47.9892 76.8699 47.8761 76.795 47.8724L44.6434 46.2704L43.0689 8.10513C43.0653 8.02355 42.9447 8.02355 42.9411 8.10513L41.363 46.2704L6.90638 47.8595C6.81506 47.8632 6.81506 48.0004 6.90638 48.0041L41.363 49.5987L42.9557 88.1088C42.9575 88.1719 43.0507 88.1719 43.0543 88.1088L44.6415 49.5987" fill="#002555"/>
<path d="M51.084 55.9531V87.484H51.0858H75.2228V83.1248H55.5717V73.4662H72.8849V69.1069H55.5717V60.3124H75.2228V55.9531H51.0858H51.084Z" fill="#002555"/>
<path d="M73.5283 35.6031H65.3986V12.8798H73.5283V8.52051H52.7812V12.8798H60.9109V35.6031H52.7812V39.9624H73.5283V35.6031Z" fill="#002555"/>
<path d="M13.265 15.7111L29.5883 39.9624H34.9088V8.52051H30.4212V32.6383L14.2002 8.52051H8.77734V39.9624H13.265V15.7111Z" fill="#002555"/>
<path d="M22.4721 59.2039C22.4721 59.2039 24.8538 59.1557 27.0164 60.1255C29.6191 61.2936 31.3634 63.439 32.1744 66.5726H36.8885C35.6392 60.0699 31.82 57.1606 28.8337 55.8274C25.6483 54.4052 22.5013 54.5239 22.4812 54.5239C17.3689 54.5239 13.4712 56.2669 10.8867 59.7027C8.68029 62.6361 7.51317 66.7636 7.50586 71.6364C7.51317 76.5112 8.68029 80.6368 10.8867 83.5701C13.4712 87.006 17.3689 88.7471 22.4812 88.749C22.4995 88.749 25.6465 88.8676 28.8337 87.4454C31.82 86.1123 35.6392 83.203 36.8885 76.7003H32.1744C31.3634 79.8339 29.6191 81.9811 27.0164 83.1474C24.8556 84.1171 22.4721 84.0689 22.4721 84.0689C17.0492 84.0689 15.157 81.5528 14.5342 80.7258C12.947 78.6157 12.1049 75.4728 12.0995 71.6364C12.1049 67.8001 12.947 64.6572 14.5342 62.5471C15.157 61.7201 17.0492 59.2039 22.4721 59.2039Z" fill="#002555"/>
</svg>
